<svg width="99" height="22" viewBox="0 0 99 22" fill="none" xmlns="http://www.w3.org/2000/svg">
<path fill-rule="evenodd" clip-rule="evenodd" d="M14 6.80713H10.5V0.807129H14V6.80713ZM15 7.80713H20V13.8071H15V7.80713ZM14 14.8071H10.5V20.8071H14V14.8071ZM15 20.8071H20V14.8071H15V20.8071ZM15 6.80713V0.807129H20V6.80713H15ZM9.5 0.807129V6.80713H6V0.807129H9.5ZM5 0.807129V6.80713H0V0.807129H5ZM0 13.8071V7.80713H5V13.8071H0ZM5 14.8071H0V20.8071H5V14.8071ZM6 14.8071V20.8071H9.5V14.8071H6Z" fill="#C6F57A"/>
<path d="M90.3775 20.807C89.4412 20.807 88.5978 20.6402 87.8475 20.3068C87.1035 19.9668 86.5135 19.4666 86.0774 18.806C85.6477 18.1455 85.4329 17.331 85.4329 16.3625C85.4329 15.5288 85.5868 14.8394 85.8946 14.2942C86.2025 13.7491 86.6225 13.313 87.1548 12.9859C87.6872 12.6588 88.2868 12.4119 88.9538 12.2452C89.6272 12.072 90.323 11.947 91.0413 11.87C91.9071 11.7802 92.6094 11.7001 93.1481 11.6295C93.6868 11.5525 94.078 11.4371 94.3217 11.2832C94.5719 11.1228 94.6969 10.8759 94.6969 10.5424V10.4847C94.6969 9.76002 94.4821 9.19885 94.0524 8.80122C93.6227 8.40359 93.0038 8.20478 92.1957 8.20478C91.3428 8.20478 90.6661 8.39077 90.1659 8.76274C89.6721 9.13471 89.3386 9.57403 89.1654 10.0807L85.9139 9.61892C86.1704 8.72105 86.5937 7.97069 87.1837 7.36784C87.7737 6.75857 88.4952 6.30322 89.3482 6.0018C90.2012 5.69396 91.1439 5.54004 92.1765 5.54004C92.8884 5.54004 93.597 5.62341 94.3025 5.79016C95.008 5.9569 95.6525 6.23268 96.2361 6.61748C96.8197 6.99587 97.2879 7.51214 97.6407 8.1663C97.9998 8.82046 98.1794 9.63816 98.1794 10.6194V20.5088H94.8316V18.479H94.7162C94.5045 18.8894 94.2063 19.2742 93.8215 19.6334C93.4431 19.9861 92.9653 20.2715 92.3881 20.4895C91.8173 20.7012 91.1471 20.807 90.3775 20.807ZM91.2818 18.2481C91.9809 18.2481 92.5869 18.1102 93.1 17.8344C93.6131 17.5522 94.0075 17.1802 94.2833 16.7185C94.5655 16.2567 94.7066 15.7533 94.7066 15.2081V13.4669C94.5975 13.5567 94.4115 13.6401 94.1486 13.717C93.8921 13.794 93.6035 13.8613 93.2828 13.9191C92.9621 13.9768 92.6447 14.0281 92.3304 14.073C92.0162 14.1179 91.7436 14.1564 91.5127 14.1884C90.9932 14.259 90.5283 14.3744 90.1178 14.5347C89.7074 14.6951 89.3835 14.9195 89.1462 15.2081C88.9089 15.4903 88.7902 15.8559 88.7902 16.3048C88.7902 16.9462 89.0243 17.4304 89.4925 17.7575C89.9607 18.0845 90.5571 18.2481 91.2818 18.2481Z" fill="#F3F3F3"/>
<path d="M75.6494 20.509V5.73264H79.026V8.19536H79.18C79.4493 7.34239 79.9111 6.68502 80.5652 6.22326C81.2258 5.75508 81.9794 5.521 82.8259 5.521C83.0183 5.521 83.2332 5.53062 83.4705 5.54986C83.7142 5.56268 83.9162 5.58513 84.0765 5.6172V8.82066C83.929 8.76935 83.6949 8.72446 83.3743 8.68598C83.06 8.64109 82.7554 8.61864 82.4604 8.61864C81.8255 8.61864 81.2547 8.75653 80.748 9.0323C80.2478 9.30166 79.8534 9.67684 79.5648 10.1578C79.2762 10.6388 79.1319 11.1936 79.1319 11.8221V20.509H75.6494Z" fill="#F3F3F3"/>
<path d="M72.7369 5.73255V8.42615H64.2424V5.73255H72.7369ZM66.3396 2.19238H69.822V16.0644C69.822 16.5326 69.8926 16.8918 70.0337 17.1419C70.1812 17.3856 70.3736 17.5523 70.6109 17.6421C70.8482 17.7319 71.1111 17.7768 71.3997 17.7768C71.6178 17.7768 71.8166 17.7608 71.9962 17.7287C72.1821 17.6966 72.3232 17.6678 72.4194 17.6421L73.0063 20.3646C72.8203 20.4287 72.5541 20.4993 72.2078 20.5762C71.8679 20.6532 71.451 20.6981 70.9572 20.7109C70.085 20.7366 69.2993 20.6051 68.6003 20.3165C67.9012 20.0215 67.3465 19.5661 66.936 18.9504C66.532 18.3348 66.3332 17.5652 66.3396 16.6416V2.19238Z" fill="#F3F3F3"/>
<path d="M62.3329 10.0337L59.1582 10.38C59.0685 10.0593 58.9113 9.7579 58.6869 9.47571C58.4688 9.19352 58.1738 8.96585 57.8018 8.79269C57.4299 8.61953 56.9745 8.53295 56.4358 8.53295C55.7111 8.53295 55.1018 8.69007 54.608 9.00433C54.1206 9.31858 53.8801 9.72583 53.8865 10.2261C53.8801 10.6558 54.0372 11.0053 54.3579 11.2747C54.6849 11.544 55.2237 11.7653 55.974 11.9384L58.4945 12.4772C59.8926 12.7786 60.9315 13.2564 61.6114 13.9105C62.2976 14.5647 62.6439 15.4209 62.6503 16.4791C62.6439 17.409 62.3713 18.2299 61.8326 18.9418C61.3003 19.6473 60.5596 20.1988 59.6104 20.5964C58.6612 20.9941 57.5709 21.1929 56.3396 21.1929C54.531 21.1929 53.0752 20.8145 51.9721 20.0577C50.869 19.2945 50.2116 18.2331 50 16.8735L53.3959 16.5464C53.5498 17.2134 53.8769 17.7169 54.3771 18.0568C54.8773 18.3967 55.5283 18.5666 56.33 18.5666C57.1573 18.5666 57.8211 18.3967 58.3213 18.0568C58.828 17.7169 59.0813 17.2968 59.0813 16.7965C59.0813 16.3733 58.9178 16.0237 58.5907 15.748C58.27 15.4722 57.7698 15.2605 57.0899 15.113L54.5695 14.5839C53.1522 14.2889 52.1036 13.7919 51.4238 13.0928C50.7439 12.3874 50.4072 11.4959 50.4137 10.4185C50.4072 9.50778 50.6542 8.71894 51.1544 8.05195C51.6611 7.37855 52.3633 6.85907 53.2612 6.49351C54.1655 6.12153 55.2076 5.93555 56.3877 5.93555C58.1193 5.93555 59.4821 6.30431 60.4762 7.04185C61.4767 7.77938 62.0956 8.77666 62.3329 10.0337Z" fill="#F3F3F3"/>
<path d="M33.8095 20.5089H30L36.936 0.807129H41.342L48.2876 20.5089H44.4781L39.216 4.84753H39.062L33.8095 20.5089ZM33.9346 12.784H44.3242V15.6508H33.9346V12.784Z" fill="#F3F3F3"/>
</svg>
